<svg xmlns="http://www.w3.org/2000/svg" version="1.0" width="124.000000pt" height="112.000000pt" viewBox="0 0 124.000000 112.000000" preserveAspectRatio="xMidYMid meet">

<g transform="translate(0.000000,112.000000) scale(0.100000,-0.100000)" fill="#f07e30" stroke="none">
<path d="M456 744 c-94 -97 -176 -186 -183 -198 -14 -24 -8 -52 15 -78 13 -15 34 -18 144 -18 70 0 128 -4 128 -8 0 -5 -14 -48 -30 -97 -16 -49 -30 -98 -30 -110 0 -26 29 -55 55 -55 18 0 348 332 372 374 14 24 8 52 -15 79 -13 14 -34 17 -144 17 -70 0 -128 4 -128 8 0 5 14 48 30 97 17 49 30 98 30 110 0 26 -29 55 -55 55 -10 0 -91 -76 -189 -176z m123 -33 c-34 -111 -19 -124 150 -131 l125 -5 -123 -128 c-68 -70 -125 -126 -127 -124 -2 1 6 31 17 66 34 111 19 124 -150 131 l-125 5 123 128 c68 70 125 126 127 124 2 -1 -6 -31 -17 -66z" fill="#f07e30"/>
</g>
</svg>